PathFileType	4	(X/Y/Z)	/Users/itak/Documents/Research/Walk-IL/dataset/trc/00576_00009.trc
DataRate	CameraRate	NumFrames	NumMarkers	Units	OrigDataRate	OrigDataStartFrame	OrigNumFrames
100.000000	100.000000	4	53	mm	100.000000	131	527
Frame#	Time	RPSI			LPSI			L3			STRN			T10			C7			CLAV			RBAK			LBAK			LSHO			LUPA			LAEL			LAOL			LWTS			LWPS			LFRA			LIFD			LHPS			LHTS			RSHO			RUPA			RAEL			RAOL			RWTS			RWPS			RFRA			RIFD			RHTS			RHPS			RBHD			LFHD			RFHD			LBHD			LHIP			RHIP			RASI			LASI			LKNE			LTHI			LANK			LTIP			LTOE			LMT1			LMT5			LHEE			RKNE			RTHI			RANK			RTIP			RTOE			RMT1			RMT5			RHEE			
		X1	Y1	Z1	X2	Y2	Z2	X3	Y3	Z3	X4	Y4	Z4	X5	Y5	Z5	X6	Y6	Z6	X7	Y7	Z7	X8	Y8	Z8	X9	Y9	Z9	X10	Y10	Z10	X11	Y11	Z11	X12	Y12	Z12	X13	Y13	Z13	X14	Y14	Z14	X15	Y15	Z15	X16	Y16	Z16	X17	Y17	Z17	X18	Y18	Z18	X19	Y19	Z19	X20	Y20	Z20	X21	Y21	Z21	X22	Y22	Z22	X23	Y23	Z23	X24	Y24	Z24	X25	Y25	Z25	X26	Y26	Z26	X27	Y27	Z27	X28	Y28	Z28	X29	Y29	Z29	X30	Y30	Z30	X31	Y31	Z31	X32	Y32	Z32	X33	Y33	Z33	X34	Y34	Z34	X35	Y35	Z35	X36	Y36	Z36	X37	Y37	Z37	X38	Y38	Z38	X39	Y39	Z39	X40	Y40	Z40	X41	Y41	Z41	X42	Y42	Z42	X43	Y43	Z43	X44	Y44	Z44	X45	Y45	Z45	X46	Y46	Z46	X47	Y47	Z47	X48	Y48	Z48	X49	Y49	Z49	X50	Y50	Z50	X51	Y51	Z51	X52	Y52	Z52	X53	Y53	Z53	

132	1.31	-1056.975463867188	987.9834594726562	-126.6499710083008	-982.1448364257812	986.9931030273438	-238.958740234375	-1009.350646972656	1089.815551757812	-173.7026062011719	-780.3828735351562	1255.722290039062	-63.10013580322266	-1008.852111816406	1214.676025390625	-167.2166137695312	-948.3619384765625	1482.42578125	-117.5113830566406	-789.25048828125	1367.919555664062	-66.43792724609375	-1056.030639648438	1362.695434570312	-73.87489318847656	-948.386474609375	1436.242065429688	-218.1421051025391	-825.5028076171875	1452.513671875	-257.5399780273438	-820.877685546875	1329.692626953125	-342.5389404296875	-819.5169067382812	1109.973999023438	-375.4630126953125	-918.7450561523438	1111.296630859375	-355.6938171386719	-777.8555297851562	856.3623657226562	-316.9255676269531	-796.7549438476562	841.9675903320312	-400.55029296875	-805.250732421875	1021.947082519531	-380.5687255859375	-809.681396484375	688.42724609375	-331.1227111816406	-799.7175903320312	781.3541870117188	-394.8841857910156	-765.7389526367188	777.731689453125	-336.2796325683594	-957.6091918945312	1435.008666992188	45.63430023193359	-1004.327453613281	1369.795532226562	97.14952087402344	-1036.90380859375	1080.237915039062	127.8770065307617	-1080.398193359375	1067.6669921875	83.57090759277344	-913.1499633789062	849.7469482421875	128.4601440429688	-980.9163818359375	832.2804565429688	173.9616394042969	-1033.211303710938	1024.191162109375	135.8561553955078	-920.1976928710938	677.0090942382812	123.9428939819336	-898.9252319335938	755.9299926757812	148.7585601806641	-969.7241821289062	756.8848266601562	175.1617431640625	-888.0848999023438	1653.162231445312	-14.43194484710693	-695.4571533203125	1665.360107421875	-91.43637084960938	-758.3314819335938	1662.063842773438	38.26013565063477	-809.7373046875	1654.874267578125	-160.2531585693359	-800.8837280273438	920.0191040039062	-281.7838745117188	-1019.181884765625	905.0443725585938	40.1911735534668	-912.3126220703125	933.8241577148438	39.59010314941406	-768.8822021484375	942.274658203125	-195.0410614013672	-650.2992553710938	525.320068359375	-119.597053527832	-694.67626953125	674.0446166992188	-193.1491088867188	-624.1495361328125	41.86752700805664	-90.02173614501953	-650.853759765625	267.4539184570312	-122.500862121582	-477.7552490234375	110.6904830932617	49.69873046875	-555.159912109375	90.84995269775391	49.19907760620117	-514.740966796875	71.90290069580078	-46.87823867797852	-708.2032470703125	28.08650207519531	-75.02802276611328	-1026.236938476562	467.9595336914062	-46.77211761474609	-996.8828125	748.1093139648438	39.04531860351562	-1180.947021484375	38.38738250732422	-176.930419921875	-1046.650268554688	328.3466491699219	-84.67826080322266	-968.0394287109375	37.66859436035156	-107.4905548095703	-1003.635864257812	36.53920745849609	-175.4571838378906	-1074.203125	37.95969772338867	-96.1995849609375	-1204.267333984375	29.54745101928711	-249.9645538330078	
133	1.32	-1050.489135742188	986.7102661132812	-124.6710510253906	-975.3610229492188	985.6763916015625	-236.7456665039062	-1002.806091308594	1088.613891601562	-171.6112060546875	-774.0399780273438	1254.369750976562	-60.28440856933594	-1002.189880371094	1213.419067382812	-164.9730072021484	-941.838623046875	1481.161743164062	-114.9738311767578	-782.8230590820312	1366.576538085938	-63.71398162841797	-1049.602905273438	1361.47900390625	-71.45878601074219	-941.7508544921875	1434.93408203125	-215.5830535888672	-818.8133544921875	1451.211181640625	-254.8726501464844	-814.2234497070312	1328.384643554688	-339.8961486816406	-813.044677734375	1108.772094726562	-373.1201782226562	-912.24072265625	1110.065063476562	-353.0396118164062	-771.2188110351562	855.0726928710938	-315.12109375	-790.3699340820312	840.8323364257812	-398.6678466796875	-798.821044921875	1020.7333984375	-378.3994750976562	-802.9208984375	687.3878784179688	-329.6436767578125	-793.3596801757812	780.1510009765625	-393.0926208496094	-759.2698974609375	776.419921875	-334.5938415527344	-951.2509155273438	1433.682006835938	48.16402816772461	-998.0091552734375	1368.47216796875	99.62929534912109	-1030.637084960938	1078.907348632812	130.3413696289062	-1074.073486328125	1066.335083007812	85.98268127441406	-906.8799438476562	848.4005737304688	131.0606994628906	-974.679931640625	830.9579467773438	176.5081481933594	-1026.964233398438	1022.866882324219	138.3531646728516	-913.9367065429688	675.676513671875	126.551025390625	-892.6538696289062	754.6024780273438	151.3690185546875	-963.5042724609375	755.5518798828125	177.7435455322266	-881.3740234375	1651.910522460938	-11.54112911224365	-688.931396484375	1663.917724609375	-88.93300628662109	-751.4916381835938	1660.646606445312	40.87209701538086	-803.337158203125	1653.569580078125	-157.5254058837891	-794.0473022460938	918.4931030273438	-278.4065551757812	-1013.801086425781	904.02490234375	42.244384765625	-906.7986450195312	932.6389770507812	42.41420745849609	-762.345947265625	940.685302734375	-191.5865783691406	-644.452392578125	523.6452026367188	-116.6360397338867	-688.2867431640625	672.0956420898438	-190.6455230712891	-616.51806640625	40.58115386962891	-84.02594757080078	-644.3028564453125	265.8986511230469	-117.959587097168	-469.02099609375	111.012939453125	53.7558708190918	-546.314453125	90.93018341064453	54.07023620605469	-506.7897644042969	71.34370422363281	-42.22378921508789	-700.3172607421875	26.7396068572998	-68.312744140625	-1023.016296386719	467.4143981933594	-45.25016784667969	-992.2802734375	747.1722412109375	41.07394027709961	-1180.825927734375	38.88810348510742	-176.7746124267578	-1044.593872070312	328.0069274902344	-83.45193481445312	-968.1337280273438	37.54873657226562	-107.3567199707031	-1003.678527832031	36.7083625793457	-175.2361602783203	-1074.2744140625	37.74631881713867	-95.89569854736328	-1204.276000976562	30.7995719909668	-249.7803497314453	
134	1.33	-1043.7783203125	985.4420166015625	-122.6080474853516	-968.3606567382812	984.3464965820312	-234.4541473388672	-996.0498046875	1087.37548828125	-169.4772186279297	-767.53759765625	1253.035400390625	-57.44216156005859	-995.3047485351562	1212.13037109375	-162.7331237792969	-935.1865234375	1479.880249023438	-112.477653503418	-776.2742309570312	1365.247192382812	-60.9651985168457	-1043.042724609375	1360.228393554688	-69.10079193115234	-934.9553833007812	1433.604736328125	-213.0666198730469	-811.9552001953125	1449.887084960938	-252.1994323730469	-807.3433837890625	1327.02783203125	-337.2215576171875	-806.3017578125	1107.512939453125	-370.6954040527344	-905.4697265625	1108.780029296875	-350.3415832519531	-764.37255859375	853.7029418945312	-313.2218322753906	-783.7611694335938	839.6380004882812	-396.7095947265625	-792.1249389648438	1019.459045410156	-376.1379089355469	-795.9803466796875	686.2933959960938	-328.1011657714844	-786.7669677734375	778.90625	-391.2451782226562	-752.5869140625	775.066650390625	-332.8185729980469	-944.821044921875	1432.356079101562	50.65878295898438	-991.6273193359375	1367.153442382812	102.0632476806641	-1024.291259765625	1077.59033203125	132.8137969970703	-1067.620239257812	1064.996948242188	88.35020446777344	-900.4998168945312	847.091064453125	133.7412872314453	-968.3250122070312	829.6566772460938	179.1056823730469	-1020.641906738281	1021.553527832031	140.8703002929688	-907.5105590820312	674.3884887695312	129.2560729980469	-886.2412109375	753.3184204101562	154.0650787353516	-957.1575317382812	754.2540893554688	180.3967742919922	-874.5420532226562	1650.667846679688	-8.650027275085449	-682.2973022460938	1662.497680664062	-86.48378753662109	-744.5379028320312	1659.246826171875	43.45795440673828	-796.8590698242188	1652.262084960938	-154.8193817138672	-786.9961547851562	916.9180297851562	-274.9561462402344	-1008.168823242188	903.0427856445312	44.37937545776367	-901.0133666992188	931.4710083007812	45.34794616699219	-755.6112670898438	939.0664672851562	-188.0866241455078	-638.5782470703125	521.8306274414062	-113.6216506958008	-681.7876586914062	670.0328979492188	-188.1033020019531	-610.0140991210938	39.16246032714844	-78.52693939208984	-638.3036499023438	264.1935119628906	-113.5629806518555	-461.1217346191406	110.5714416503906	57.25657272338867	-538.3302001953125	90.41344451904297	58.45207214355469	-499.8897705078125	70.29371643066406	-38.09746170043945	-693.601318359375	25.47270393371582	-62.03411102294922	-1019.728820800781	466.955322265625	-43.60084533691406	-987.4594116210938	746.2884521484375	43.18650054931641	-1180.717529296875	39.49539566040039	-176.5494689941406	-1042.493896484375	327.7659606933594	-82.11344146728516	-968.2404174804688	37.42666244506836	-107.211799621582	-1003.769104003906	36.92450714111328	-174.9507598876953	-1074.380981445312	37.54088592529297	-95.55540466308594	-1204.321533203125	32.2734375	-249.5293121337891	
135	1.34	-1036.84423828125	984.1921997070312	-120.4461135864258	-961.149169921875	983.01513671875	-232.0603332519531	-989.0771484375	1086.102905273438	-167.2855834960938	-760.8683471679688	1251.737060546875	-54.58277893066406	-988.1951904296875	1210.815551757812	-160.4907531738281	-928.4104614257812	1478.591552734375	-110.0302581787109	-769.6043090820312	1363.947265625	-58.20108413696289	-1036.348266601562	1358.95068359375	-66.80900573730469	-928.0078125	1432.264282226562	-210.5922088623047	-804.9359130859375	1448.55078125	-249.5323486328125	-800.2432250976562	1325.632568359375	-334.5233154296875	-799.2867431640625	1106.202392578125	-368.18701171875	-898.4326782226562	1107.445190429688	-347.6058349609375	-757.3211669921875	852.26806640625	-311.2238159179688	-776.924072265625	838.3898315429688	-394.67724609375	-785.158935546875	1018.134216308594	-373.7796936035156	-788.8771362304688	685.1563110351562	-326.4775085449219	-779.9292602539062	777.6338500976562	-389.3368225097656	-745.6636962890625	773.6936645507812	-330.9549255371094	-938.3231201171875	1431.04150390625	53.11099624633789	-985.1856689453125	1365.848510742188	104.4458389282227	-1017.867736816406	1076.29638671875	135.2901763916016	-1061.055908203125	1063.6640625	90.69044494628906	-894.012939453125	845.8291015625	136.5006256103516	-961.85986328125	828.3909301757812	181.7551574707031	-1014.237731933594	1020.2626953125	143.3969573974609	-900.92578125	673.1533203125	132.0634765625	-879.7007446289062	752.0859985351562	156.8526763916016	-950.68603515625	753.0022583007812	183.1147918701172	-867.5919189453125	1649.445068359375	-5.765738487243652	-675.5529174804688	1661.115600585938	-84.09722900390625	-737.4640502929688	1657.878662109375	46.00805282592773	-790.3052978515625	1650.971313476562	-152.1381683349609	-779.7503051757812	915.3143310546875	-271.458251953125	-1002.252807617188	902.1078491210938	46.6169548034668	-894.9380493164062	930.3221435546875	48.37554168701172	-748.6682739257812	937.4474487304688	-184.5678100585938	-632.6783447265625	519.9028930664062	-110.5214233398438	-675.1752319335938	667.89111328125	-185.494873046875	-604.634033203125	37.65383529663086	-73.57837677001953	-632.8351440429688	262.365234375	-109.3071365356445	-454.1086730957031	109.2518310546875	60.28243255615234	-531.271728515625	89.20549774169922	62.37325668334961	-494.0592346191406	68.70387268066406	-34.47193908691406	-688.0843505859375	24.37092018127441	-56.28576278686523	-1016.348205566406	466.5849304199219	-41.81393814086914	-982.386474609375	745.4642333984375	45.40868759155273	-1180.6142578125	40.2292594909668	-176.2437896728516	-1040.32177734375	327.6263427734375	-80.66500091552734	-968.353515625	37.30359649658203	-107.0512237548828	-1003.906921386719	37.18915939331055	-174.5984802246094	-1074.522827148438	37.34389114379883	-95.17791748046875	-1204.401123046875	33.98279190063477	-249.2016296386719	
